<svg width="168" height="377" viewBox="0 0 168 377" fill="none" xmlns="http://www.w3.org/2000/svg">
<path fill-rule="evenodd" clip-rule="evenodd" d="M0 0H168V191H0V0Z" fill="#494949" fill-opacity="0.82"/>
<path d="M75.15 155.56L96 158.8V166.03L80.55 168.25L96 170.65V177.7L75.15 180.85V175.33L91.89 173.62L75.15 171.07V165.25L91.89 162.97L75.15 160.87V155.56ZM74.61 145.074C74.61 142.054 75.57 139.704 77.49 138.024C79.41 136.344 82.1 135.504 85.56 135.504C87.82 135.504 89.78 135.884 91.44 136.644C93.08 137.384 94.34 138.474 95.22 139.914C96.1 141.354 96.54 143.074 96.54 145.074C96.54 148.094 95.58 150.444 93.66 152.124C91.74 153.784 89.04 154.614 85.56 154.614C83.3 154.614 81.35 154.244 79.71 153.504C78.07 152.744 76.81 151.654 75.93 150.234C75.05 148.794 74.61 147.074 74.61 145.074ZM78.6 145.074C78.6 146.374 79.14 147.334 80.22 147.954C81.3 148.554 83.08 148.854 85.56 148.854C88.04 148.854 89.83 148.544 90.93 147.924C92.01 147.304 92.55 146.354 92.55 145.074C92.55 143.754 92.01 142.794 90.93 142.194C89.85 141.594 88.06 141.294 85.56 141.294C83.08 141.294 81.3 141.594 80.22 142.194C79.14 142.794 78.6 143.754 78.6 145.074ZM88.32 126.011V127.541H96V133.091H75.15V125.861C75.15 122.921 75.68 120.731 76.74 119.291C77.8 117.831 79.43 117.101 81.63 117.101C82.95 117.101 84.05 117.411 84.93 118.031C85.81 118.631 86.6 119.601 87.3 120.941L96 115.751V121.931L88.32 126.011ZM84.54 127.541V125.681C84.54 123.761 83.57 122.801 81.63 122.801C80.73 122.801 80.07 123.071 79.65 123.611C79.23 124.131 79.02 124.921 79.02 125.981V127.541H84.54ZM75.15 108.937H96V114.487H75.15V108.937ZM75.15 96.7874L84.45 103.057L96 96.2474V102.607L84.9 108.757L75.15 102.577V96.7874ZM74.61 88.1859C74.61 86.6059 74.84 85.2159 75.3 84.0159C75.76 82.7959 76.45 81.7059 77.37 80.7459L80.31 83.2359C79.17 84.6759 78.6 86.1859 78.6 87.7659C78.6 88.5859 78.76 89.2159 79.08 89.6559C79.38 90.0759 79.81 90.2859 80.37 90.2859C80.77 90.2859 81.1 90.1759 81.36 89.9559C81.62 89.7359 81.87 89.3659 82.11 88.8459C82.35 88.3259 82.65 87.5059 83.01 86.3859C83.69 84.2459 84.55 82.6859 85.59 81.7059C86.61 80.7059 88.03 80.2059 89.85 80.2059C91.17 80.2059 92.34 80.5459 93.36 81.2259C94.36 81.9059 95.14 82.8959 95.7 84.1959C96.26 85.4759 96.54 86.9859 96.54 88.7259C96.54 92.0459 95.53 94.7559 93.51 96.8559L90.48 94.1259C91.84 92.4659 92.52 90.7359 92.52 88.9359C92.52 87.9959 92.32 87.2659 91.92 86.7459C91.5 86.2259 90.95 85.9659 90.27 85.9659C89.79 85.9659 89.4 86.0659 89.1 86.2659C88.78 86.4659 88.5 86.8259 88.26 87.3459C88 87.8459 87.72 88.5859 87.42 89.5659C86.68 91.9259 85.79 93.5859 84.75 94.5459C83.71 95.5059 82.4 95.9859 80.82 95.9859C79.58 95.9859 78.49 95.6559 77.55 94.9959C76.61 94.3159 75.89 93.3859 75.39 92.2059C74.87 91.0059 74.61 89.6659 74.61 88.1859ZM96 66.9135H87.33V72.4335H96V77.9835H75.15V72.4335H83.04V66.9135H75.15V61.3635H96V66.9135ZM74.61 49.4195C74.61 46.3995 75.57 44.0495 77.49 42.3695C79.41 40.6895 82.1 39.8495 85.56 39.8495C87.82 39.8495 89.78 40.2295 91.44 40.9895C93.08 41.7295 94.34 42.8195 95.22 44.2595C96.1 45.6995 96.54 47.4195 96.54 49.4195C96.54 52.4395 95.58 54.7895 93.66 56.4695C91.74 58.1295 89.04 58.9595 85.56 58.9595C83.3 58.9595 81.35 58.5895 79.71 57.8495C78.07 57.0895 76.81 55.9995 75.93 54.5795C75.05 53.1395 74.61 51.4195 74.61 49.4195ZM78.6 49.4195C78.6 50.7195 79.14 51.6795 80.22 52.2995C81.3 52.8995 83.08 53.1995 85.56 53.1995C88.04 53.1995 89.83 52.8895 90.93 52.2695C92.01 51.6495 92.55 50.6995 92.55 49.4195C92.55 48.0995 92.01 47.1395 90.93 46.5395C89.85 45.9395 88.06 45.6395 85.56 45.6395C83.08 45.6395 81.3 45.9395 80.22 46.5395C79.14 47.1395 78.6 48.0995 78.6 49.4195ZM75.15 30.2966C75.15 27.4966 75.74 25.3266 76.92 23.7866C78.08 22.2266 79.79 21.4466 82.05 21.4466C84.41 21.4466 86.21 22.1966 87.45 23.6966C88.67 25.1966 89.28 27.2166 89.28 29.7566V31.8866H96L96 37.4366H75.15V30.2966ZM85.32 30.2666C85.32 29.2266 85.06 28.4466 84.54 27.9266C84.02 27.3866 83.2 27.1166 82.08 27.1166C80.06 27.1166 79.05 28.2066 79.05 30.3866V31.8866H85.32V30.2666Z" fill="#B59E72"/>
<path d="M96 358.91V365.9L80.31 371.18L80.94 371.09C82.32 370.89 83.62 370.74 84.84 370.64C86.04 370.52 87.41 370.46 88.95 370.46H96V375.38H75.15V368.54L90.9 363.08C89.4 363.32 88.05 363.51 86.85 363.65C85.65 363.77 84.27 363.83 82.71 363.83H75.15V358.91H96ZM75.15 342.433L79.08 343.003V350.113H83.52V343.903H87.33V350.113H92.07V342.523H96V355.663H75.15V342.433ZM74.61 331.64C74.61 328.62 75.57 326.27 77.49 324.59C79.41 322.91 82.1 322.07 85.56 322.07C87.82 322.07 89.78 322.45 91.44 323.21C93.08 323.95 94.34 325.04 95.22 326.48C96.1 327.92 96.54 329.64 96.54 331.64C96.54 334.66 95.58 337.01 93.66 338.69C91.74 340.35 89.04 341.18 85.56 341.18C83.3 341.18 81.35 340.81 79.71 340.07C78.07 339.31 76.81 338.22 75.93 336.8C75.05 335.36 74.61 333.64 74.61 331.64ZM78.6 331.64C78.6 332.94 79.14 333.9 80.22 334.52C81.3 335.12 83.08 335.42 85.56 335.42C88.04 335.42 89.83 335.11 90.93 334.49C92.01 333.87 92.55 332.92 92.55 331.64C92.55 330.32 92.01 329.36 90.93 328.76C89.85 328.16 88.06 327.86 85.56 327.86C83.08 327.86 81.3 328.16 80.22 328.76C79.14 329.36 78.6 330.32 78.6 331.64ZM74.61 310.777C74.61 309.457 74.81 308.267 75.21 307.207C75.61 306.147 76.2 305.157 76.98 304.237L80.07 306.847C79.61 307.467 79.26 308.067 79.02 308.647C78.78 309.227 78.66 309.847 78.66 310.507C78.66 311.827 79.23 312.857 80.37 313.597C81.51 314.337 83.23 314.707 85.53 314.707C87.83 314.707 89.54 314.337 90.66 313.597C91.78 312.837 92.34 311.787 92.34 310.447C92.34 309.727 92.2 309.067 91.92 308.467C91.62 307.847 91.19 307.177 90.63 306.457L93.75 303.997C94.57 304.817 95.24 305.807 95.76 306.967C96.28 308.107 96.54 309.347 96.54 310.687C96.54 312.667 96.12 314.397 95.28 315.877C94.42 317.337 93.17 318.467 91.53 319.267C89.87 320.067 87.87 320.467 85.53 320.467C83.25 320.467 81.29 320.057 79.65 319.237C78.01 318.417 76.76 317.277 75.9 315.817C75.04 314.357 74.61 312.677 74.61 310.777ZM75.15 296.734H91.68V288.724L96 289.324V302.284H75.15V296.734ZM96 275.836L91.74 276.766V282.286L96 283.216V288.976L75.15 282.796V276.136L96 269.956V275.836ZM87.78 281.416V277.636L79.11 279.526L87.78 281.416ZM74.61 261.715C74.61 260.135 74.84 258.745 75.3 257.545C75.76 256.325 76.45 255.235 77.37 254.275L80.31 256.765C79.17 258.205 78.6 259.715 78.6 261.295C78.6 262.115 78.76 262.745 79.08 263.185C79.38 263.605 79.81 263.815 80.37 263.815C80.77 263.815 81.1 263.705 81.36 263.485C81.62 263.265 81.87 262.895 82.11 262.375C82.35 261.855 82.65 261.035 83.01 259.915C83.69 257.775 84.55 256.215 85.59 255.235C86.61 254.235 88.03 253.735 89.85 253.735C91.17 253.735 92.34 254.075 93.36 254.755C94.36 255.435 95.14 256.425 95.7 257.725C96.26 259.005 96.54 260.515 96.54 262.255C96.54 265.575 95.53 268.285 93.51 270.385L90.48 267.655C91.84 265.995 92.52 264.265 92.52 262.465C92.52 261.525 92.32 260.795 91.92 260.275C91.5 259.755 90.95 259.495 90.27 259.495C89.79 259.495 89.4 259.595 89.1 259.795C88.78 259.995 88.5 260.355 88.26 260.875C88 261.375 87.72 262.115 87.42 263.095C86.68 265.455 85.79 267.115 84.75 268.075C83.71 269.035 82.4 269.515 80.82 269.515C79.58 269.515 78.49 269.185 77.55 268.525C76.61 267.845 75.89 266.915 75.39 265.735C74.87 264.535 74.61 263.195 74.61 261.715ZM74.61 244.606C74.61 243.026 74.84 241.636 75.3 240.436C75.76 239.216 76.45 238.126 77.37 237.166L80.31 239.656C79.17 241.096 78.6 242.606 78.6 244.186C78.6 245.006 78.76 245.636 79.08 246.076C79.38 246.496 79.81 246.706 80.37 246.706C80.77 246.706 81.1 246.596 81.36 246.376C81.62 246.156 81.87 245.786 82.11 245.266C82.35 244.746 82.65 243.926 83.01 242.806C83.69 240.666 84.55 239.106 85.59 238.126C86.61 237.126 88.03 236.626 89.85 236.626C91.17 236.626 92.34 236.966 93.36 237.646C94.36 238.326 95.14 239.316 95.7 240.616C96.26 241.896 96.54 243.406 96.54 245.146C96.54 248.466 95.53 251.176 93.51 253.276L90.48 250.546C91.84 248.886 92.52 247.156 92.52 245.356C92.52 244.416 92.32 243.686 91.92 243.166C91.5 242.646 90.95 242.386 90.27 242.386C89.79 242.386 89.4 242.486 89.1 242.686C88.78 242.886 88.5 243.246 88.26 243.766C88 244.266 87.72 245.006 87.42 245.986C86.68 248.346 85.79 250.006 84.75 250.966C83.71 251.926 82.4 252.406 80.82 252.406C79.58 252.406 78.49 252.076 77.55 251.416C76.61 250.736 75.89 249.806 75.39 248.626C74.87 247.426 74.61 246.086 74.61 244.606ZM75.15 228.853H96L96 234.403H75.15V228.853ZM74.61 216.734C74.61 215.414 74.81 214.224 75.21 213.164C75.61 212.104 76.2 211.114 76.98 210.194L80.07 212.804C79.61 213.424 79.26 214.024 79.02 214.604C78.78 215.184 78.66 215.804 78.66 216.464C78.66 217.784 79.23 218.814 80.37 219.554C81.51 220.294 83.23 220.664 85.53 220.664C87.83 220.664 89.54 220.294 90.66 219.554C91.78 218.794 92.34 217.744 92.34 216.404C92.34 215.684 92.2 215.024 91.92 214.424C91.62 213.804 91.19 213.134 90.63 212.414L93.75 209.954C94.57 210.774 95.24 211.764 95.76 212.924C96.28 214.064 96.54 215.304 96.54 216.644C96.54 218.624 96.12 220.354 95.28 221.834C94.42 223.294 93.17 224.424 91.53 225.224C89.87 226.024 87.87 226.424 85.53 226.424C83.25 226.424 81.29 226.014 79.65 225.194C78.01 224.374 76.76 223.234 75.9 221.774C75.04 220.314 74.61 218.634 74.61 216.734Z" fill="white"/>
<rect x="83" y="205" width="20" height="1" transform="rotate(-90 83 205)" fill="white"/>
</svg>
