<svg width="46" height="46" viewBox="0 0 46 46" fill="none" xmlns="http://www.w3.org/2000/svg">
<path d="M15.2482 34.0043L26.2431 23.0091L28.6974 22.342C28.7079 22.3394 28.7187 22.336 28.7288 22.3327C29.4273 22.1092 29.9738 21.5605 30.1943 20.8611L31.49 16.6164C31.5726 16.3453 31.4991 16.0508 31.2987 15.8504L30.1494 14.7013C29.9492 14.5008 29.6546 14.4272 29.3835 14.51L25.1306 15.8082C24.4248 16.0356 23.8749 16.5937 23.6578 17.3026L22.9908 19.7568L11.9955 30.7516L9.82712 28.5832C9.68337 28.4394 9.48841 28.3586 9.28509 28.3586C9.08177 28.3586 8.88681 28.4394 8.74306 28.5832L7.11689 30.2094C6.97314 30.3531 6.89228 30.5481 6.89228 30.7514V32.92C6.89237 33.1233 6.97314 33.3182 7.11689 33.462L1.17409 39.4049C-0.320643 40.9028 -0.320643 43.3279 1.17409 44.8258C2.67187 46.3207 5.0972 46.3207 6.59508 44.8258L12.5379 38.883C12.6816 39.0267 12.8766 39.1076 13.0799 39.1076H15.2485C15.4518 39.1075 15.6467 39.0267 15.7905 38.883L17.4167 37.2568C17.5605 37.1131 17.6413 36.9181 17.6413 36.7148C17.6413 36.5115 17.5605 36.3165 17.4167 36.1727L15.2482 34.0043ZM24.2189 20.6968C24.3136 20.6025 24.3818 20.4849 24.4166 20.3558L25.1279 17.7361C25.1959 17.5159 25.367 17.3428 25.5864 17.2722L29.391 16.111L29.8889 16.6089L28.7302 20.4052C28.6624 20.6234 28.4934 20.7955 28.2765 20.8675L25.6441 21.5833C25.515 21.6181 25.3974 21.6862 25.3031 21.7809L14.1643 32.92L13.0798 31.8355L24.2189 20.6968ZM5.51085 43.7417C4.60055 44.6102 3.16844 44.6102 2.25814 43.7417C1.36015 42.8434 1.36015 41.3874 2.25814 40.489L8.20095 34.5462L11.4537 37.7989L5.51085 43.7417ZM14.931 37.5743H13.3972L13.0798 37.2569L8.74297 32.92L8.42556 32.6026V31.0689L9.28509 30.2094L15.7905 36.7148L14.931 37.5743Z" fill="white"/>
<path d="M45.8729 20.5712C45.8421 20.2896 45.6586 20.0478 45.3955 19.9423L40.7309 18.0766C40.3297 16.6375 39.7532 15.2532 39.0141 13.955L41.0008 9.32652C41.1131 9.06489 41.0711 8.76266 40.8919 8.54155C40.4093 7.94598 39.8635 7.33918 39.2631 6.73085C38.6615 6.13716 38.0547 5.59136 37.4591 5.10881C37.238 4.92948 36.9357 4.88753 36.6741 4.99992L32.0456 6.98645C30.7473 6.2474 29.3631 5.67078 27.924 5.26972L26.0582 0.604953C25.9528 0.341981 25.711 0.15843 25.4293 0.127614C23.8143 -0.0415614 22.1861 -0.0415614 20.571 0.127614C20.2894 0.15843 20.0476 0.341891 19.9421 0.604863L18.0764 5.26963C16.6373 5.67078 15.253 6.24731 13.9548 6.98636L9.32631 4.99974C9.06478 4.88717 8.76228 4.92912 8.54135 5.10872C7.94578 5.59127 7.33897 6.13707 6.73064 6.7375C6.13696 7.33909 5.59116 7.94589 5.10861 8.54146C4.92928 8.76257 4.88732 9.06489 4.99963 9.32652L6.98625 13.955C6.24719 15.2533 5.67058 16.6375 5.26952 18.0766L0.604837 19.9423C0.341865 20.0478 0.158404 20.2896 0.127588 20.5712C0.0412482 21.378 -0.00115801 22.189 0.000279489 23.0004C0.000279489 23.4239 0.343482 23.7671 0.766915 23.7671H9.20017C9.62361 23.7671 9.96681 23.4239 9.96681 23.0004C9.96681 15.8024 15.8021 9.9671 23.0001 9.9671C30.1982 9.9671 36.0335 15.8024 36.0335 23.0004C36.0335 30.1985 30.1983 36.0337 23.0001 36.0337C22.5767 36.0337 22.2335 36.3769 22.2335 36.8003V45.2337C22.2335 45.6571 22.5767 46.0003 23.0001 46.0003C23.8115 46.0018 24.6225 45.9593 25.4293 45.873C25.711 45.8422 25.9528 45.6587 26.0582 45.3957L27.924 40.731C29.3631 40.3298 30.7474 39.7533 32.0456 39.0142L36.6741 41.0009C36.9358 41.1125 37.2378 41.0707 37.4591 40.892C38.0547 40.4094 38.6615 39.8636 39.2702 39.2628C39.8654 38.6594 40.4112 38.0526 40.8919 37.4592C41.0712 37.2381 41.1132 36.9358 41.0008 36.6742L39.0141 32.0457C39.7532 30.7474 40.3298 29.3632 40.7309 27.9241L45.3956 26.0584C45.6586 25.9529 45.8422 25.7111 45.8729 25.4295C46.0426 23.8145 46.0426 22.1862 45.8729 20.5712ZM44.3927 24.8081L39.8043 26.6435C39.5769 26.7345 39.4066 26.9287 39.3461 27.1661C38.9475 28.7257 38.3252 30.2194 37.4987 31.6006C37.3728 31.8116 37.3557 32.0701 37.4526 32.2957L39.4067 36.8482C39.0323 37.2895 38.6217 37.7365 38.1855 38.1791C37.7393 38.6197 37.2909 39.031 36.8479 39.407L32.2955 37.4529C32.0698 37.3559 31.8113 37.3731 31.6003 37.4989C30.219 38.3254 28.7253 38.9477 27.1658 39.3464C26.9285 39.407 26.7342 39.5772 26.6432 39.8046L24.8078 44.393C24.4683 44.4218 24.1205 44.4421 23.7668 44.454V37.5473C31.6019 37.1343 37.7022 30.5897 37.5645 22.7449C37.4268 14.9001 31.1004 8.57381 23.2557 8.43608C15.4109 8.29835 8.8664 14.3985 8.45339 22.2337H1.54667C1.55862 21.8799 1.57883 21.5322 1.60767 21.1926L6.19607 19.3572C6.42347 19.2662 6.59381 19.0719 6.65428 18.8346C7.05291 17.275 7.67517 15.7813 8.50173 14.4001C8.6276 14.1891 8.64467 13.9306 8.54782 13.7049L6.59372 9.1524C6.96918 8.70992 7.37949 8.26259 7.81488 7.82155C8.26104 7.38096 8.70954 6.96956 9.15247 6.59366L13.7049 8.54775C13.9306 8.64487 14.1892 8.6278 14.4001 8.50166C15.7815 7.67519 17.2751 7.05294 18.8346 6.65421C19.072 6.59375 19.2663 6.4234 19.3573 6.19601L21.1927 1.60761C22.3959 1.5095 23.605 1.5095 24.8082 1.60761L26.6436 6.19601C26.7346 6.4234 26.9287 6.59375 27.1662 6.65421C28.7258 7.05285 30.2194 7.6751 31.6007 8.50166C31.8116 8.62772 32.0702 8.64478 32.2959 8.54775L36.8484 6.59366C37.2909 6.96911 37.7382 7.37943 38.1792 7.81481C38.6198 8.26097 39.0312 8.70947 39.4071 9.1524L37.453 13.7049C37.3561 13.9306 37.3732 14.189 37.4991 14.4001C38.3256 15.7814 38.9478 17.2751 39.3466 18.8346C39.4071 19.0719 39.5774 19.2662 39.8048 19.3572L44.3932 21.1926C44.4422 21.7747 44.4674 22.3808 44.4674 23.0003C44.4668 23.6199 44.4418 24.226 44.3927 24.8081Z" fill="white"/>
</svg>
