<svg width="37" height="37" viewBox="0 0 37 37" fill="none" xmlns="http://www.w3.org/2000/svg">
<path d="M27.3217 0.309517L29.787 2.71512C29.9199 2.84477 29.9959 3.02196 29.9981 3.20761C30.0004 3.39326 29.9288 3.57226 29.7992 3.70513L16.4592 17.3761C16.135 17.7083 15.9596 18.1467 15.9653 18.6108C15.9653 18.611 15.9653 18.6114 15.9653 18.6116C15.9775 19.5688 16.7661 20.3384 17.7234 20.3271C18.1877 20.3216 18.622 20.1355 18.9464 19.8031L32.2864 6.1321C32.5564 5.85538 32.9997 5.84995 33.2764 6.11997L35.7417 8.52565C36.0183 8.79559 36.0238 9.23893 35.7538 9.51565L29.9436 15.4701C29.6736 15.7468 29.2303 15.7522 28.9536 15.4822C28.677 15.2122 28.6715 14.7688 28.9415 14.4922L34.2627 9.03884L32.7996 7.61111L19.9486 20.7809C19.3629 21.3811 18.5786 21.7172 17.74 21.7271C16.0114 21.7476 14.5872 20.3579 14.5653 18.6293L14.5653 18.6279C14.555 17.7898 14.8717 16.998 15.4571 16.3982L28.308 3.22832L26.8449 1.80059L11.5156 17.5103L11.5563 20.8201L12.3572 21.6018C12.6339 21.8718 12.6393 22.3151 12.3694 22.5918L5.91847 29.2028C6.21831 29.3658 6.49794 29.5703 6.74893 29.8153C6.99993 30.0602 7.21123 30.3347 7.38156 30.6305L13.8325 24.0195C13.9622 23.8866 14.1394 23.8107 14.325 23.8084C14.5107 23.8061 14.6897 23.8777 14.8225 24.0074L15.6236 24.789L18.9333 24.7485L24.541 19.0017C24.811 18.7249 25.2543 18.7195 25.5311 18.9895C25.8077 19.2595 25.8132 19.7028 25.5432 19.9796L19.733 25.9339C19.6033 26.0668 19.4262 26.1428 19.2405 26.1451L15.3508 26.1927C15.1652 26.195 14.9862 26.1234 14.8533 25.9937L14.3459 25.4985L7.86061 32.1446C7.86982 32.245 7.87617 32.3459 7.87742 32.4479C7.88966 33.4474 7.51189 34.3919 6.81385 35.1072C6.11568 35.8227 5.18078 36.2234 4.18126 36.2357C3.18173 36.2479 2.2373 35.8702 1.5218 35.1721C0.806441 34.474 0.40563 33.539 0.393381 32.5395C0.381132 31.54 0.758843 30.5955 1.45695 29.8801C2.15512 29.1647 3.09002 28.764 4.08954 28.7517C4.1914 28.7505 4.29248 28.7543 4.39303 28.7611L10.8782 22.115L10.3707 21.6197C10.2378 21.49 10.1619 21.3129 10.1596 21.1272L10.1119 17.2375C10.1096 17.0518 10.1812 16.8728 10.3108 16.7399L26.3315 0.321651C26.6017 0.0449317 27.045 0.0394271 27.3217 0.309517ZM2.45915 30.858C2.02228 31.3058 1.78581 31.8968 1.79347 32.5223C1.80114 33.1479 2.05196 33.733 2.49974 34.17C2.94745 34.6068 3.53861 34.8432 4.1641 34.8356C4.78959 34.8279 5.37471 34.5771 5.81158 34.1293C6.24844 33.6816 6.48492 33.0905 6.47726 32.465C6.46959 31.8395 6.21877 31.2543 5.77099 30.8174C5.32328 30.3805 4.73219 30.1441 4.1067 30.1518C3.48114 30.1595 2.89602 30.4102 2.45915 30.858Z" fill="white"/>
<path d="M26.5429 17.2446C26.5406 17.0605 26.6133 16.879 26.7419 16.7472C26.8705 16.6147 27.0502 16.5382 27.2343 16.536C27.4184 16.5337 27.6 16.6057 27.7318 16.735C27.8642 16.8636 27.9407 17.0426 27.943 17.2274C27.9452 17.4116 27.8732 17.5931 27.7439 17.7249C27.6153 17.8567 27.4362 17.9338 27.2515 17.9361C27.0674 17.9383 26.8859 17.8656 26.754 17.737C26.6222 17.6084 26.5451 17.4287 26.5429 17.2446Z" fill="white"/>
</svg>
