<svg width="43" height="43" viewBox="0 0 43 43" fill="none" xmlns="http://www.w3.org/2000/svg">
<path d="M38.3885 16.3243H37.2861C36.9378 16.3243 36.6554 16.6066 36.6554 16.955C36.6554 17.3034 36.9378 17.5857 37.2861 17.5857H38.3885C40.2072 17.5857 41.687 19.0654 41.687 20.8843V41.7386H39.3486V31.0498C39.3486 30.7014 39.0662 30.4191 38.7179 30.4191C38.3695 30.4191 38.0871 30.7014 38.0871 31.0498V41.7386H34.8777V35.4243H35.2684C35.9876 35.4243 36.5728 34.8391 36.5728 34.1198V26.9138H38.0871V28.3619C38.0871 28.7103 38.3695 28.9926 38.7179 28.9926C39.0662 28.9926 39.3486 28.7103 39.3486 28.3619V26.2831C39.3486 25.9347 39.0662 25.6523 38.7179 25.6523H4.09284C3.74451 25.6523 3.46211 25.9347 3.46211 26.2831V36.9389C3.46211 37.2873 3.74451 37.5696 4.09284 37.5696C4.44117 37.5696 4.72357 37.2873 4.72357 36.9389V26.9138H6.32201V34.1198C6.32201 34.8391 6.90716 35.4243 7.62636 35.4243H8.01707V41.7386H4.72357V39.6269C4.72357 39.2784 4.44117 38.9961 4.09284 38.9961C3.74451 38.9961 3.46211 39.2784 3.46211 39.6269V41.7386H1.26146V13.3872C1.26146 6.70103 6.70103 1.26146 13.3871 1.26146C15.663 1.26146 17.886 1.89925 19.8157 3.10588C21.7454 4.31251 23.2921 6.03179 24.2886 8.07796L26.7628 13.1581C27.4101 14.4872 28.4148 15.604 29.6682 16.3877C30.9217 17.1715 32.3657 17.5857 33.844 17.5857H34.5981C34.9464 17.5857 35.2288 17.3034 35.2288 16.955C35.2288 16.6066 34.9464 16.3243 34.5981 16.3243H33.844C31.3314 16.3243 28.9971 14.8647 27.8969 12.6057L25.4228 7.52552C24.3226 5.26659 22.6149 3.36835 20.4845 2.03625C18.3541 0.704146 15.8998 0 13.3871 0C6.00547 0 0 6.00547 0 13.3872V41.8543C0 42.4861 0.514002 43.0001 1.14582 43.0001H41.8026C42.4345 43.0001 42.9485 42.4861 42.9485 41.8543V20.8843C42.9484 18.3699 40.9028 16.3243 38.3885 16.3243ZM35.3113 34.1198C35.3113 34.1435 35.2921 34.1628 35.2684 34.1628H33.2256C33.2019 34.1628 33.1827 34.1436 33.1827 34.1198V26.9139H35.3113V34.1198ZM33.2256 35.4242H33.6163V41.7385H30.6837V26.9138H31.9211V34.1198C31.9212 34.839 32.5063 35.4242 33.2256 35.4242ZM15.9613 34.1627C15.9377 34.1627 15.9184 34.1435 15.9184 34.1198V26.9138H18.0471V34.1198C18.0471 34.1434 18.0278 34.1627 18.0042 34.1627H15.9613ZM15.9613 35.4242H16.352V41.7385H13.4725V26.9138H14.657V34.1198C14.657 34.839 15.2421 35.4242 15.9613 35.4242ZM17.6136 35.4242H18.0043C18.7235 35.4242 19.3086 34.839 19.3086 34.1198V26.9137H20.8435V41.7385H17.6136V35.4242ZM22.105 26.9138H23.5862V34.1198C23.5862 34.8391 24.1714 35.4243 24.8906 35.4243H25.2813V41.7386H22.105V26.9138ZM24.8905 34.1627C24.8669 34.1627 24.8476 34.1435 24.8476 34.1198V26.9138H26.9763V34.1198C26.9763 34.1434 26.957 34.1627 26.9334 34.1627H24.8905ZM26.5427 35.4242H26.9334C27.6526 35.4242 28.2377 34.839 28.2377 34.1198V26.9137H29.4223V41.7385H26.5427V35.4242ZM7.58347 34.1198V26.9139H9.71214V34.1198C9.71214 34.1435 9.69288 34.1628 9.66925 34.1628H7.62636C7.60264 34.1627 7.58347 34.1435 7.58347 34.1198ZM9.27853 35.4242H9.66925C10.3884 35.4242 10.9736 34.839 10.9736 34.1198V26.9137H12.211V41.7385H9.27845V35.4242H9.27853Z" fill="white"/>
</svg>
